<svg width="16" height="16" viewBox="0 0 16 16" fill="none" xmlns="http://www.w3.org/2000/svg">
<mask id="path-1-inside-1_28_2117" fill="white">
<path fill-rule="evenodd" clip-rule="evenodd" d="M12.2314 3.97521C12.5395 4.17671 12.626 4.58987 12.4245 4.89803L7.89119 11.8314C7.78435 11.9948 7.61126 12.1031 7.41762 12.1278C7.22396 12.1526 7.02921 12.0911 6.88475 11.9598L3.95142 9.29315C3.67898 9.04548 3.65891 8.62385 3.90658 8.35141C4.15425 8.07898 4.57588 8.05889 4.84832 8.30657L7.20311 10.4473L11.3086 4.16836C11.5101 3.8602 11.9232 3.77373 12.2314 3.97521Z"/>
</mask>
<path fill-rule="evenodd" clip-rule="evenodd" d="M12.2314 3.97521C12.5395 4.17671 12.626 4.58987 12.4245 4.89803L7.89119 11.8314C7.78435 11.9948 7.61126 12.1031 7.41762 12.1278C7.22396 12.1526 7.02921 12.0911 6.88475 11.9598L3.95142 9.29315C3.67898 9.04548 3.65891 8.62385 3.90658 8.35141C4.15425 8.07898 4.57588 8.05889 4.84832 8.30657L7.20311 10.4473L11.3086 4.16836C11.5101 3.8602 11.9232 3.77373 12.2314 3.97521Z" fill="#09090B"/>
<path d="M12.2314 3.97521L13.3259 2.30128L13.3258 2.30126L12.2314 3.97521ZM12.4245 4.89803L10.7506 3.80351L10.7506 3.80353L12.4245 4.89803ZM7.89119 11.8314L6.21725 10.7369L6.2172 10.737L7.89119 11.8314ZM7.41762 12.1278L7.67113 14.1117L7.67115 14.1117L7.41762 12.1278ZM6.88475 11.9598L5.53941 13.4397L5.53952 13.4398L6.88475 11.9598ZM3.95142 9.29315L2.60608 10.773L3.95142 9.29315ZM4.84832 8.30657L3.50294 9.78643L3.50297 9.78645L4.84832 8.30657ZM7.20311 10.4473L5.85777 11.9272L7.5934 13.505L8.87705 11.5418L7.20311 10.4473ZM11.3086 4.16836L9.63465 3.07385L9.63465 3.07386L11.3086 4.16836ZM11.1368 5.64914C10.5207 5.24625 10.3475 4.42 10.7506 3.80351L14.0985 5.99254C14.9045 4.75974 14.5584 3.10716 13.3259 2.30128L11.1368 5.64914ZM10.7506 3.80353L6.21725 10.7369L9.56513 12.9259L14.0985 5.99253L10.7506 3.80353ZM6.2172 10.737C6.4312 10.4096 6.77758 10.1933 7.16409 10.1439L7.67115 14.1117C8.44494 14.0128 9.1375 13.58 9.56517 12.9258L6.2172 10.737ZM7.1641 10.1439C7.55185 10.0944 7.94133 10.2174 8.22999 10.4798L5.53952 13.4398C6.1171 13.9648 6.89608 14.2107 7.67113 14.1117L7.1641 10.1439ZM8.2301 10.4799L5.29676 7.81327L2.60608 10.773L5.53941 13.4397L8.2301 10.4799ZM5.29676 7.81327C5.84166 8.30863 5.88179 9.15189 5.38646 9.69676L2.4267 7.00607C1.43603 8.09581 1.51631 9.78234 2.60608 10.773L5.29676 7.81327ZM5.38646 9.69676C4.89114 10.2416 4.04785 10.2818 3.50294 9.78643L6.19369 6.82672C5.10391 5.83596 3.41736 5.91634 2.4267 7.00607L5.38646 9.69676ZM3.50297 9.78645L5.85777 11.9272L8.54845 8.9674L6.19366 6.82669L3.50297 9.78645ZM8.87705 11.5418L12.9825 5.26287L9.63465 3.07386L5.52917 9.35278L8.87705 11.5418ZM12.9825 5.26288C12.5796 5.87915 11.7532 6.05216 11.1369 5.64917L13.3258 2.30126C12.0931 1.4953 10.4406 1.84126 9.63465 3.07385L12.9825 5.26288Z" fill="#F4F4F5" mask="url(#path-1-inside-1_28_2117)"/>
</svg>
