<svg width="24" height="24" viewBox="0 0 24 24" fill="none" xmlns="http://www.w3.org/2000/svg">
<g id="chat-new">
<path id="Vector" d="M5 16H9V21L14 16H19C19.5304 16 20.0391 15.7893 20.4142 15.4142C20.7893 15.0391 21 14.5304 21 14V6C21 5.46957 20.7893 4.96086 20.4142 4.58579C20.0391 4.21071 19.5304 4 19 4H5C4.46957 4 3.96086 4.21071 3.58579 4.58579C3.21071 4.96086 3 5.46957 3 6V14C3 14.5304 3.21071 15.0391 3.58579 15.4142C3.96086 15.7893 4.46957 16 5 16Z" stroke="#FAFAFA" stroke-linecap="round" stroke-linejoin="round"/>
<path id="Vector 2" d="M12 7V13" stroke="#FAFAFA" stroke-linecap="round"/>
<path id="Vector 3" d="M15 10L9 10" stroke="#FAFAFA" stroke-linecap="round"/>
</g>
</svg>
